<svg width="60" height="60" viewBox="0 0 60 60" fill="none" xmlns="http://www.w3.org/2000/svg">
<path d="M38.9062 29.9062L59.1562 9.84375C60.2812 8.71875 60.2812 6.65625 59.1562 5.53125L54.4688 0.84375C53.3438 -0.28125 51.2812 -0.28125 50.1562 0.84375L30.0938 21.0938L9.84375 0.84375C8.71875 -0.28125 6.65625 -0.28125 5.53125 0.84375L0.84375 5.53125C-0.28125 6.65625 -0.28125 8.71875 0.84375 9.84375L21.0938 29.9062L0.84375 50.1562C-0.28125 51.2812 -0.28125 53.3438 0.84375 54.4688L5.53125 59.1562C6.65625 60.2812 8.71875 60.2812 9.84375 59.1562L30.0938 38.9062L50.1562 59.1562C51.2812 60.2812 53.3438 60.2812 54.4688 59.1562L59.1562 54.4688C60.2812 53.3438 60.2812 51.2812 59.1562 50.1562L38.9062 29.9062Z" fill="#F5F3DD"/>
</svg>
